<svg width="170" height="170" viewBox="0 0 170 170" fill="none" xmlns="http://www.w3.org/2000/svg">
<path d="M47.2072 127.306C43.8013 107.471 54.62 86.2346 73.2523 101.261L47.2072 127.306Z" fill="url(#paint0_linear_113_83)"/>
<path d="M47.2072 127.306C67.0415 130.712 88.2783 119.893 73.2523 101.261L47.2072 127.306Z" fill="url(#paint1_linear_113_83)"/>
<path fill-rule="evenodd" clip-rule="evenodd" d="M79.3297 94.5821L43.2002 76.4176L61.4318 63.7957L80.4647 59.9892C83.8276 57.0084 86.5564 54.2244 89.0486 51.6818C99.5802 40.9371 105.888 34.5014 137.979 35.7321L138.165 35.5468L138.172 35.7395L138.365 35.7472L138.18 35.9324C139.41 68.0235 132.975 74.3316 122.23 84.8632C119.687 87.3554 116.903 90.0842 113.923 93.4471L110.116 112.48L97.4942 130.712L79.3297 94.5821ZM108.313 65.7992C110.747 68.2335 114.694 68.2335 117.128 65.7992C119.562 63.365 119.562 59.4182 117.128 56.984C114.694 54.5497 110.747 54.5497 108.313 56.984C105.879 59.4182 105.879 63.365 108.313 65.7992Z" fill="url(#paint2_linear_113_83)"/>
<rect x="37.3901" y="121.496" width="5.66667" height="19.8333" rx="2.83333" transform="rotate(45 37.3901 121.496)" fill="white"/>
<rect x="49.411" y="133.516" width="5.66667" height="34" rx="2.83333" transform="rotate(45 49.411 133.516)" fill="white"/>
<rect x="40.5958" y="88.6388" width="5.66667" height="51" rx="2.83333" transform="rotate(45 40.5958 88.6388)" fill="white"/>
<rect x="80.6652" y="126.304" width="5.66667" height="42.5" rx="2.83333" transform="rotate(45 80.6652 126.304)" fill="white"/>
<defs>
<linearGradient id="paint0_linear_113_83" x1="138.265" y1="35.647" x2="46.9066" y2="127.005" gradientUnits="userSpaceOnUse">
<stop stop-color="#191AF1"/>
<stop offset="1" stop-color="#07C8F9"/>
</linearGradient>
<linearGradient id="paint1_linear_113_83" x1="138.265" y1="35.647" x2="46.9066" y2="127.005" gradientUnits="userSpaceOnUse">
<stop stop-color="#191AF1"/>
<stop offset="1" stop-color="#07C8F9"/>
</linearGradient>
<linearGradient id="paint2_linear_113_83" x1="138.265" y1="35.647" x2="46.9066" y2="127.005" gradientUnits="userSpaceOnUse">
<stop stop-color="#191AF1"/>
<stop offset="1" stop-color="#07C8F9"/>
</linearGradient>
</defs>
</svg>
