<svg width="170" height="170" viewBox="0 0 170 170" fill="none" xmlns="http://www.w3.org/2000/svg">
<path fill-rule="evenodd" clip-rule="evenodd" d="M88.9772 46.2897C93.1078 33.169 74.9066 25.0715 67.9268 36.9247C63.9848 43.6188 54.6691 44.5872 49.399 38.8506C40.0675 28.693 23.9775 40.355 30.7903 52.3381C34.6379 59.1057 30.8403 67.6418 23.2374 69.3152C9.77527 72.2783 11.8864 92.0377 25.6791 92.1677C33.4686 92.2411 38.9868 99.8088 36.654 107.219C32.5233 120.34 50.7245 128.437 57.7043 116.584C61.6463 109.89 70.962 108.921 76.2321 114.658C85.5636 124.816 101.654 113.154 94.8408 101.17C90.9932 94.4028 94.7908 85.8668 102.394 84.1933C115.856 81.2302 113.745 61.4708 99.952 61.3408C92.1625 61.2674 86.6443 53.6997 88.9772 46.2897ZM62.6114 90.8644C70.2789 90.8644 76.4947 84.6487 76.4947 76.9811C76.4947 69.3136 70.2789 63.0978 62.6114 63.0978C54.9438 63.0978 48.728 69.3136 48.728 76.9811C48.728 84.6487 54.9438 90.8644 62.6114 90.8644Z" fill="url(#paint0_linear_113_71)"/>
<path fill-rule="evenodd" clip-rule="evenodd" d="M133.377 82.9406C132.053 74.3372 119.456 74.8296 118.808 83.5101C118.442 88.4125 113.424 91.5669 108.829 89.7839C100.691 86.6268 94.8178 97.746 102.036 102.644C106.112 105.41 106.343 111.317 102.495 114.393C95.6815 119.839 102.405 130.466 110.271 126.684C114.714 124.547 119.962 127.3 120.71 132.159C122.034 140.763 134.63 140.27 135.278 131.59C135.644 126.687 140.662 123.533 145.258 125.316C153.395 128.473 159.269 117.354 152.05 112.456C147.974 109.69 147.743 103.782 151.591 100.707C158.405 95.2603 151.681 84.6335 143.815 88.4162C139.373 90.5526 134.124 87.7994 133.377 82.9406ZM127.211 114.098C130.81 114.098 133.728 111.18 133.728 107.581C133.728 103.982 130.81 101.064 127.211 101.064C123.612 101.064 120.695 103.982 120.695 107.581C120.695 111.18 123.612 114.098 127.211 114.098Z" fill="white"/>
<defs>
<linearGradient id="paint0_linear_113_71" x1="62.8156" y1="31.1666" x2="62.8156" y2="122.342" gradientUnits="userSpaceOnUse">
<stop stop-color="#191AF1"/>
<stop offset="1" stop-color="#07C8F9"/>
</linearGradient>
</defs>
</svg>
